<svg width="32" height="32" viewBox="0 0 32 32" fill="none" xmlns="http://www.w3.org/2000/svg">
<rect width="32" height="32" rx="16" fill="#F5F5F5"/>
<path d="M7.92771 13.8615C7.35861 14.1004 7.00537 14.5256 7.00004 15.1276C6.99636 15.5485 7.28038 16.1138 7.84948 16.3448C8.08389 16.4401 11.3752 16.8829 11.3752 16.8829C11.3752 16.8829 12.2463 19.6365 12.5603 20.6042C12.6512 20.8842 12.703 21.0216 12.9025 21.2045C13.2409 21.5142 13.8131 21.4171 14.0606 21.1686C14.7152 20.5124 15.75 19.5 15.75 19.5L16.1855 19.8544C16.1855 19.8544 18.1193 21.397 19.1764 22.1232C19.7988 22.5511 20.2308 22.9974 20.9313 23C21.2881 23.0017 21.8605 22.8241 22.2388 22.391C22.4888 22.1049 22.6492 21.6472 22.7112 21.2369C22.8523 20.305 24.507 10.2285 24.5 9.87591C24.4888 9.31328 24.0155 8.99653 23.6221 9.00003C23.375 9.00265 23.1714 9.07441 22.7183 9.21266C19.2136 10.2828 8.15984 13.7644 7.92771 13.8615ZM21 11.625C21 11.625 16.3817 15.6448 14.5363 17.4945C13.9451 18.0869 13.9033 19.1036 13.9033 19.1036L12.9494 16.0516L21 11.625Z" fill="#828282"/>
</svg>
