<svg width="101" height="24" viewBox="0 0 101 24" fill="none" xmlns="http://www.w3.org/2000/svg">
<path d="M48.8499 19.1877C48.9448 19.069 49.0884 19 49.2403 19H52C53.1046 19 54 18.1046 54 17V15H40V17C40 18.1046 40.8954 19 42 19H44.7597C44.9116 19 45.0552 19.069 45.1501 19.1877L46.6096 21.012C46.8097 21.2622 47.1903 21.2622 47.3904 21.012L48.8499 19.1877Z" fill="white"/>
<path d="M42 5.5C40.8954 5.5 40 6.39543 40 7.5V15H54V7.5C54 6.39543 53.1046 5.5 52 5.5H47.5H47H46.5H42Z" fill="white"/>
<path d="M47 5.5V3M47 5.5H47.5M47 5.5H46.5M47 3L47.3536 3.35355C47.4473 3.44732 47.5 3.5745 47.5 3.70711V5.5M47 3L46.6464 3.35355C46.5527 3.44732 46.5 3.5745 46.5 3.70711V5.5M40 15V17C40 18.1046 40.8954 19 42 19H44.7597C44.9116 19 45.0552 19.069 45.1501 19.1877L46.6096 21.012C46.8097 21.2622 47.1903 21.2622 47.3904 21.012L48.8499 19.1877C48.9448 19.069 49.0884 19 49.2403 19H52C53.1046 19 54 18.1046 54 17V15M40 15V7.5C40 6.39543 40.8954 5.5 42 5.5H46.5M40 15H54M54 15V7.5C54 6.39543 53.1046 5.5 52 5.5H47.5" stroke="#344054" stroke-linejoin="round"/>
<path d="M27 1H33.5V23.5H27V1Z" fill="#00BE66"/>
<path d="M62 1H77V6.5H68.5V11H76V17H68.5V23.5H62V1Z" fill="#00BE66"/>
<path fill-rule="evenodd" clip-rule="evenodd" d="M77 23.5L86 0.5H92.5L101 23.5H94L93 20H85L84 23.5H77ZM86.5 16L89 9L92 16H86.5Z" fill="#00BE66"/>
<path fill-rule="evenodd" clip-rule="evenodd" d="M0 23.5L9 0.5H15.5L24 23.5H17L16 20H8L7 23.5H0ZM9.5 16L12 9L15 16H9.5Z" fill="#00BE66"/>
<path d="M37.5 8.5V13.5L37 12.5V9.5L37.5 8.5Z" stroke="#344054" stroke-linejoin="round"/>
<path d="M56.5 8.5V13.5L57 12.5V9.5L56.5 8.5Z" stroke="#344054" stroke-linejoin="round"/>
<circle cx="44" cy="10.5" r="0.5" fill="black" stroke="#344054"/>
<circle cx="50" cy="10.5" r="0.5" fill="black" stroke="#344054"/>
</svg>
