<svg width="24" height="24" viewBox="0 0 106 104" fill="none" xmlns="http://www.w3.org/2000/svg">
<path d="M52.9992 16.5151V3M52.9992 16.5151H55.4996M52.9992 16.5151H50.4989M52.9992 3L54.8014 4.94825C55.2503 5.43349 55.4996 6.07018 55.4996 6.7312V16.5151M52.9992 3L51.197 4.94825C50.7482 5.43349 50.4989 6.07018 50.4989 6.7312V16.5151M17.9941 67.8725V78.994C17.9941 84.7945 22.6963 89.4966 28.4967 89.4966H41.6744C42.5068 89.4966 43.2898 89.8913 43.785 90.5604L50.8886 100.16C51.9382 101.578 54.0602 101.578 55.1098 100.16L62.2135 90.5604C62.7086 89.8913 63.4917 89.4966 64.324 89.4966H77.5017C83.3021 89.4966 88.0043 84.7945 88.0043 78.994V67.8725M17.9941 67.8725V27.0177C17.9941 21.2173 22.6963 16.5151 28.4967 16.5151H50.4989M17.9941 67.8725H88.0043M88.0043 67.8725V27.0177C88.0043 21.2173 83.3021 16.5151 77.5017 16.5151H55.4996" stroke="#00BE66" stroke-width="5.25129" stroke-linejoin="round"/>
<path d="M5.50023 32.7188V59.7475L3 54.3418V38.1245L5.50023 32.7188Z" stroke="#00BE66" stroke-width="5.25129" stroke-linejoin="round"/>
<path d="M100.511 32.7188V59.7475L103.012 54.3418V38.1245L100.511 32.7188Z" stroke="#00BE66" stroke-width="5.25129" stroke-linejoin="round"/>
<mask id="path-4-inside-1_1711_5995" fill="white">
<ellipse cx="38.005" cy="43.546" rx="5.00007" ry="5.40533"/>
</mask>
<ellipse cx="38.005" cy="43.546" rx="5.00007" ry="5.40533" fill="black"/>
<path d="M37.7537 43.546C37.7537 43.7188 37.6912 43.7961 37.6856 43.8022C37.6842 43.8038 37.7071 43.7784 37.7675 43.7508C37.8331 43.7208 37.9184 43.7 38.005 43.7V54.2026C44.0445 54.2026 48.2563 49.0386 48.2563 43.546H37.7537ZM38.005 43.7C38.0915 43.7 38.1768 43.7208 38.2424 43.7508C38.3028 43.7784 38.3257 43.8038 38.3243 43.8022C38.3187 43.7961 38.2562 43.7188 38.2562 43.546H27.7536C27.7536 49.0386 31.9654 54.2026 38.005 54.2026V43.7ZM38.2562 43.546C38.2562 43.3731 38.3187 43.2958 38.3243 43.2897C38.3257 43.2882 38.3028 43.3135 38.2424 43.3411C38.1768 43.3711 38.0915 43.3919 38.005 43.3919V32.8893C31.9654 32.8893 27.7536 38.0533 27.7536 43.546H38.2562ZM38.005 43.3919C37.9184 43.3919 37.8331 43.3711 37.7675 43.3411C37.7071 43.3135 37.6842 43.2882 37.6856 43.2897C37.6912 43.2958 37.7537 43.3731 37.7537 43.546H48.2563C48.2563 38.0533 44.0445 32.8893 38.005 32.8893V43.3919Z" fill="#00BE66" mask="url(#path-4-inside-1_1711_5995)"/>
<mask id="path-6-inside-2_1711_5995" fill="white">
<ellipse cx="68.0089" cy="43.546" rx="5.00007" ry="5.40533"/>
</mask>
<ellipse cx="68.0089" cy="43.546" rx="5.00007" ry="5.40533" fill="black"/>
<path d="M67.7576 43.546C67.7576 43.7188 67.6951 43.7961 67.6895 43.8022C67.6881 43.8038 67.711 43.7784 67.7714 43.7508C67.8371 43.7208 67.9223 43.7 68.0089 43.7V54.2026C74.0484 54.2026 78.2602 49.0386 78.2602 43.546H67.7576ZM68.0089 43.7C68.0954 43.7 68.1807 43.7208 68.2463 43.7508C68.3067 43.7784 68.3296 43.8038 68.3282 43.8022C68.3226 43.7961 68.2601 43.7188 68.2601 43.546H57.7575C57.7575 49.0386 61.9693 54.2026 68.0089 54.2026V43.7ZM68.2601 43.546C68.2601 43.3731 68.3226 43.2958 68.3282 43.2897C68.3296 43.2882 68.3067 43.3135 68.2463 43.3411C68.1807 43.3711 68.0954 43.3919 68.0089 43.3919V32.8893C61.9693 32.8893 57.7575 38.0533 57.7575 43.546H68.2601ZM68.0089 43.3919C67.9223 43.3919 67.8371 43.3711 67.7714 43.3411C67.711 43.3135 67.6881 43.2882 67.6895 43.2897C67.6951 43.2958 67.7576 43.3731 67.7576 43.546H78.2602C78.2602 38.0533 74.0484 32.8893 68.0089 32.8893V43.3919Z" fill="#00BE66" mask="url(#path-6-inside-2_1711_5995)"/>
</svg>
